<?xml version="1.0" encoding="UTF-8" standalone="no"?>
<!-- Created with Inkscape (http://www.inkscape.org/) -->

<svg
   width="210mm"
   height="297mm"
   viewBox="0 0 210 297"
   version="1.1"
   id="svg5"
   inkscape:version="1.1 (c68e22c387, 2021-05-23)"
   sodipodi:docname="color_logo.svg"
   xmlns:inkscape="http://www.inkscape.org/namespaces/inkscape"
   xmlns:sodipodi="http://sodipodi.sourceforge.net/DTD/sodipodi-0.dtd"
   xmlns="http://www.w3.org/2000/svg"
   xmlns:svg="http://www.w3.org/2000/svg">
  <sodipodi:namedview
     id="namedview7"
     pagecolor="#ffffff"
     bordercolor="#666666"
     borderopacity="1.0"
     inkscape:pageshadow="2"
     inkscape:pageopacity="0.0"
     inkscape:pagecheckerboard="0"
     inkscape:document-units="mm"
     showgrid="false"
     inkscape:zoom="0.69664703"
     inkscape:cx="-96.892684"
     inkscape:cy="446.42407"
     inkscape:window-width="1920"
     inkscape:window-height="986"
     inkscape:window-x="-11"
     inkscape:window-y="-11"
     inkscape:window-maximized="1"
     inkscape:current-layer="layer1" />
  <defs
     id="defs2" />
  <g
     inkscape:label="Capa 1"
     inkscape:groupmode="layer"
     id="layer1">
    <g
       id="Layer1000"
       transform="matrix(0.26458333,0,0,0.26458333,491.03536,186.44311)">
      <path
         d="m -1541.0418,-171.7308 c 4.8104,0 9.5949,0.9214 14.4047,2.7124 13.9697,7.0358 20.9796,18.549 20.9796,34.4888 v 0.8955 c 0,7.4449 -1.6883,14.1483 -5.091,20.0841 -7.343,11.1806 -16.9373,16.784 -28.7836,16.784 h -3.9143 c -6.3455,0 -12.3833,-2.4052 -18.1399,-7.1897 v 33.1329 h -29.9602 v -35.5375 l 0.051,-63.4003 h 30.0622 v 5.2448 h 0.3071 c 5.7566,-4.8098 12.4346,-7.215 20.0841,-7.215 z m 2.0981,28.1952 c -2.9077,-6.8133 -8.0883,-6.7664 -13.7905,-5.9871 -6.8053,0.9301 -9.5943,5.68 -9.5943,13.4833 0.2948,10.8878 -0.1842,16.4918 11.6924,17.6795 h 1.7909 c 12.1967,0 13.3641,-16.2995 9.9015,-25.1757 z"
         style="fill:#0097d3;fill-rule:evenodd"
         id="path17" />
      <path
         d="m -1471.6284,-169.7606 v 76.4485 h -29.9602 v -76.4485 z m -29.9602,-7.4963 v -21.0055 h 29.9602 v 21.0055 z"
         style="fill:#0097d3;fill-rule:evenodd"
         id="path19" />
      <path
         d="m -1384.3582,-93.3121 h -28.1946 v -39.887 c 0,-7.4455 -2.5845,-12.0255 -7.8034,-13.7904 -1.1,-0.1793 -1.9961,-0.2818 -2.6864,-0.2818 h -1.791 c -5.2961,0 -8.8014,3.0961 -10.4903,9.2877 -0.2046,0.7416 -0.3066,1.6371 -0.3066,2.6865 v 41.985 h -28.4764 v -76.4485 h 28.4764 v 9.5943 c 6.78,-8.2125 14.4808,-12.3061 23.0777,-12.3061 h 2.098 c 12.3574,0 20.6471,6.1917 24.894,18.6003 0.7935,3.7351 1.2026,7.1384 1.2026,10.1826 z"
         style="fill:#0097d3;fill-rule:evenodd"
         id="path21" />
      <path
         d="m -1344.4193,-173.2146 h 3.5305 c 10.7716,0 21.7478,2.9936 32.9025,8.9806 0,0.5117 -3.2747,6.4988 -9.8242,18.012 l -10.2599,-2.8656 c -4.9124,-1.3818 -9.0313,-2.0981 -12.3833,-2.0981 h -1.8676 c -3.0448,0 -4.8611,1.3046 -5.3987,3.9144 0,1.6376 3.9916,3.326 11.9995,5.0916 11.3859,3.0961 18.9334,6.3449 22.6432,9.7482 4.6306,4.0423 6.9592,9.4404 6.9592,16.1697 0,13.9437 -8.2131,22.6426 -24.664,26.0965 -3.6332,0.4098 -6.6014,0.5884 -8.8528,0.5884 h -2.226 c -14.1482,0 -27.1199,-3.8884 -38.9148,-11.6924 v -0.2812 c 7.0871,-11.1554 10.7969,-16.7581 11.104,-16.8094 h 0.2812 c 8.443,4.5027 16.9373,6.7547 25.4829,6.7547 h 1.8935 c 4.4514,0 6.652,-0.9981 6.652,-2.9936 0,-2.789 -5.2708,-5.1942 -15.8119,-7.1897 -11.5898,-3.0955 -19.1373,-7.4449 -22.6425,-13.0482 -2.0981,-3.7098 -3.1469,-7.5989 -3.1469,-11.6924 0,-13.5346 8.2385,-22.2335 24.6641,-26.0972 3.1468,-0.3837 5.7819,-0.5883 7.88,-0.5883 z"
         style="fill:#0097d3;fill-rule:evenodd"
         id="path23" />
      <path
         d="m -1272.7812,-130.1802 c 0,4.5287 0.5117,8.0846 1.5097,10.6431 2.9077,6.8133 8.1235,6.9907 13.7905,5.9871 7.0772,-1.2533 9.7989,-6.9166 9.5943,-17.2445 -0.215,-10.8704 0.1805,-16.4917 -11.6924,-17.6788 h -1.7909 c -9.255,0 -11.4112,7.8447 -11.4112,15.8879 z m 3.6078,38.8123 c -4.8098,0 -9.5943,-0.8954 -14.4047,-2.6864 -13.9951,-7.0611 -20.9796,-19.8029 -20.9796,-38.224 v -0.9208 c 0,-7.4455 1.6884,-14.1229 5.0916,-20.0847 7.343,-11.1807 16.9373,-16.7834 28.783,-16.7834 h 3.9149 c 6.345,0 12.3827,2.4046 18.1393,7.1891 v -6.8825 h 29.9602 l -0.077,76.4485 h -30.0368 v -5.2449 h -0.3072 c -5.7566,4.7845 -12.434,7.1891 -20.0841,7.1891 z"
         style="fill:#0097d3;fill-rule:evenodd"
         id="path25" />
      <path
         d="m -1537.3568,-69.1359 v -2.2354 h 5.7456 v 5.2776 c -0.5573,0.5448 -1.3672,1.0221 -2.4293,1.4377 -1.0593,0.4124 -2.1339,0.6188 -3.2238,0.6188 -1.3825,0 -2.5864,-0.2894 -3.6148,-0.8714 -1.0253,-0.5819 -1.798,-1.4162 -2.3153,-2.497 -0.5171,-1.0806 -0.7759,-2.2598 -0.7759,-3.5314 0,-1.3793 0.2894,-2.6048 0.8652,-3.6794 0.5788,-1.0715 1.4227,-1.8966 2.5341,-2.4692 0.8499,-0.4403 1.9027,-0.6591 3.1652,-0.6591 1.641,0 2.9248,0.345 3.8486,1.0347 0.9207,0.6927 1.5148,1.644 1.7796,2.8632 l -2.6603,0.4989 c -0.1846,-0.6497 -0.5358,-1.1639 -1.0497,-1.5426 -0.5114,-0.3756 -1.1517,-0.5632 -1.9213,-0.5632 -1.1639,0 -2.0906,0.3693 -2.7774,1.1114 -0.6866,0.7419 -1.0312,1.8411 -1.0312,3.2976 0,1.5732 0.3478,2.7524 1.0437,3.5376 0.6987,0.7852 1.6103,1.1792 2.7402,1.1792 0.5573,0 1.1177,-0.1108 1.6781,-0.3294 0.5633,-0.2185 1.0438,-0.4864 1.4471,-0.8005 v -1.6781 z m 14.671,4.8586 v -13.227 h 5.6254 c 1.4133,0 2.4415,0.1199 3.0821,0.3572 0.6435,0.2369 1.1546,0.6587 1.5395,1.2653 0.3847,0.6095 0.5788,1.3023 0.5788,2.0844 0,0.9946 -0.2894,1.8136 -0.8713,2.4601 -0.582,0.6466 -1.4502,1.0531 -2.6079,1.2223 0.5757,0.3357 1.0499,0.705 1.4224,1.1084 0.3756,0.4034 0.8805,1.1208 1.5148,2.1492 l 1.6135,2.5801 h -3.1929 l -1.9151,-2.8879 c -0.6866,-1.0253 -1.1577,-1.6719 -1.4134,-1.9398 -0.2522,-0.2647 -0.5201,-0.4496 -0.8036,-0.5482 -0.2863,-0.0984 -0.7359,-0.1477 -1.3515,-0.1477 h -0.542 v 5.5236 z m 2.6788,-7.6297 h 1.9769 c 1.2807,0 2.078,-0.0553 2.3984,-0.163 0.3171,-0.1077 0.5694,-0.2957 0.748,-0.5604 0.1817,-0.2648 0.271,-0.5973 0.271,-0.9947 0,-0.4462 -0.1199,-0.8033 -0.3572,-1.0806 -0.2369,-0.2741 -0.5726,-0.4464 -1.0037,-0.5173 -0.2186,-0.0306 -0.8683,-0.0462 -1.9488,-0.0462 h -2.0846 z m 17.1156,-5.5973 h 2.6787 v 7.1677 c 0,1.1392 0.034,1.8751 0.099,2.2107 0.1139,0.5417 0.3818,0.9791 0.8067,1.3054 0.4277,0.3294 1.0097,0.4926 1.7487,0.4926 0.7483,0 1.3147,-0.1539 1.6965,-0.4649 0.3818,-0.3109 0.6098,-0.6896 0.6866,-1.1423 0.077,-0.4527 0.117,-1.2008 0.117,-2.2476 v -7.3216 h 2.6788 v 6.9551 c 0,1.5888 -0.071,2.7127 -0.2157,3.3684 -0.1446,0.6559 -0.4094,1.2101 -0.7974,1.6628 -0.3847,0.4524 -0.902,0.8096 -1.5486,1.0774 -0.6497,0.2679 -1.4933,0.4034 -2.537,0.4034 -1.2594,0 -2.2139,-0.1446 -2.8636,-0.4371 -0.6497,-0.2925 -1.1639,-0.6712 -1.5426,-1.1392 -0.3787,-0.468 -0.625,-0.9545 -0.7449,-1.4687 -0.1755,-0.7574 -0.2619,-1.8782 -0.2619,-3.359 z m 19.7943,13.227 v -13.227 h 4.2829 c 1.6225,0 2.6787,0.0646 3.1714,0.197 0.7574,0.2001 1.3918,0.631 1.9029,1.2963 0.511,0.665 0.7665,1.5239 0.7665,2.577 0,0.8126 -0.1477,1.4932 -0.4403,2.0474 -0.2956,0.5542 -0.6681,0.9885 -1.1208,1.3054 -0.4524,0.3141 -0.9144,0.5235 -1.3824,0.625 -0.6373,0.1264 -1.558,0.1911 -2.765,0.1911 h -1.7365 v 4.9878 z m 2.6787,-10.9919 v 3.7687 h 1.4565 c 1.0499,0 1.7487,-0.0709 2.103,-0.2092 0.354,-0.1386 0.631,-0.3544 0.8311,-0.6529 0.2001,-0.2956 0.3019,-0.6375 0.3019,-1.0315 0,-0.4833 -0.1417,-0.8804 -0.4218,-1.1945 -0.2834,-0.3141 -0.6375,-0.5111 -1.0715,-0.5913 -0.3172,-0.0584 -0.9544,-0.0893 -1.9151,-0.0893 z m 15.5424,4.4583 c 0,-1.3484 0.2032,-2.4814 0.6066,-3.399 0.2988,-0.6744 0.7112,-1.281 1.2317,-1.8167 0.5204,-0.5358 1.0899,-0.9329 1.7087,-1.1945 0.8252,-0.3481 1.7765,-0.5236 2.8542,-0.5236 1.9522,0 3.5101,0.6066 4.6831,1.8167 1.1699,1.213 1.7549,2.8973 1.7549,5.0556 0,2.1399 -0.5819,3.8149 -1.7427,5.0219 -1.1608,1.2098 -2.7156,1.8133 -4.6585,1.8133 -1.9672,0 -3.5345,-0.6004 -4.6953,-1.8042 -1.1607,-1.2008 -1.7427,-2.8574 -1.7427,-4.9695 z m 2.7527,-0.0893 c 0,1.4996 0.3478,2.6357 1.0406,3.4115 0.6928,0.7728 1.5735,1.1608 2.6388,1.1608 1.0684,0 1.9429,-0.3849 2.6294,-1.1514 0.6834,-0.7699 1.0253,-1.9213 1.0253,-3.4577 0,-1.518 -0.3325,-2.651 -1.0006,-3.3962 -0.6653,-0.7481 -1.5489,-1.1205 -2.6541,-1.1205 -1.1024,0 -1.9922,0.3787 -2.6666,1.133 -0.674,0.7574 -1.0128,1.8966 -1.0128,3.4205 z m 37.3507,1.7459 2.5864,0.7943 c -0.3972,1.4564 -1.0593,2.537 -1.9829,3.2454 -0.9238,0.7049 -2.0936,1.059 -3.5132,1.059 -1.7581,0 -3.202,-0.6004 -4.3351,-1.8012 -1.1298,-1.2007 -1.6965,-2.842 -1.6965,-4.9263 0,-2.2014 0.5695,-3.9132 1.7056,-5.1327 1.1364,-1.2192 2.6326,-1.8289 4.4861,-1.8289 1.6197,0 2.9345,0.4805 3.9442,1.438 0.6034,0.5664 1.053,1.3794 1.3546,2.4415 l -2.6416,0.6282 c -0.157,-0.6835 -0.4833,-1.2255 -0.9791,-1.6226 -0.4989,-0.3971 -1.1024,-0.5941 -1.8105,-0.5941 -0.9822,0 -1.7795,0.3509 -2.3893,1.0559 -0.6125,0.7021 -0.9173,1.8414 -0.9173,3.4177 0,1.6688 0.3016,2.8602 0.902,3.5685 0.6035,0.7113 1.3856,1.0653 2.3494,1.0653 0.7112,0 1.3238,-0.2248 1.8348,-0.6775 0.5111,-0.4524 0.8808,-1.1608 1.1024,-2.1305 z m 10.7791,-1.6566 c 0,-1.3484 0.2032,-2.4814 0.6066,-3.399 0.2987,-0.6744 0.7112,-1.281 1.2316,-1.8167 0.5205,-0.5358 1.0899,-0.9329 1.7087,-1.1945 0.8252,-0.3481 1.7765,-0.5236 2.8543,-0.5236 1.9522,0 3.5101,0.6066 4.6831,1.8167 1.1698,1.213 1.7549,2.8973 1.7549,5.0556 0,2.1399 -0.582,3.8149 -1.7427,5.0219 -1.1608,1.2098 -2.7156,1.8133 -4.6585,1.8133 -1.9672,0 -3.5345,-0.6004 -4.6953,-1.8042 -1.1608,-1.2008 -1.7427,-2.8574 -1.7427,-4.9695 z m 2.7527,-0.0893 c 0,1.4996 0.3478,2.6357 1.0406,3.4115 0.6928,0.7728 1.5735,1.1608 2.6388,1.1608 1.0683,0 1.9428,-0.3849 2.6294,-1.1514 0.6834,-0.7699 1.0253,-1.9213 1.0253,-3.4577 0,-1.518 -0.3325,-2.651 -1.0007,-3.3962 -0.6653,-0.7481 -1.5488,-1.1205 -2.654,-1.1205 -1.1024,0 -1.9922,0.3787 -2.6666,1.133 -0.6741,0.7574 -1.0128,1.8966 -1.0128,3.4205 z m 18.5873,6.6229 v -13.227 h 4.0119 l 2.3709,9.0212 2.3431,-9.0212 h 4.021 v 13.227 h -2.4755 l -0.01,-10.4131 -2.6079,10.4131 h -2.5741 l -2.5954,-10.4131 -0.01,10.4131 z m 21.8787,0 v -13.227 h 9.7911 v 2.2351 h -7.1124 v 2.9373 h 6.6135 v 2.2354 h -6.6135 v 3.5838 h 7.3712 v 2.2354 z m 27.2364,-4.877 2.5863,0.7943 c -0.3971,1.4564 -1.0593,2.537 -1.9828,3.2454 -0.9238,0.7049 -2.0937,1.059 -3.5133,1.059 -1.758,0 -3.202,-0.6004 -4.335,-1.8012 -1.1299,-1.2007 -1.6965,-2.842 -1.6965,-4.9263 0,-2.2014 0.5694,-3.9132 1.7056,-5.1327 1.1364,-1.2192 2.6325,-1.8289 4.4861,-1.8289 1.6197,0 2.9344,0.4805 3.9441,1.438 0.6035,0.5664 1.0531,1.3794 1.3547,2.4415 l -2.6416,0.6282 c -0.1571,-0.6835 -0.4833,-1.2255 -0.9791,-1.6226 -0.4989,-0.3971 -1.1024,-0.5941 -1.8105,-0.5941 -0.9822,0 -1.7796,0.3509 -2.3893,1.0559 -0.6126,0.7021 -0.9173,1.8414 -0.9173,3.4177 0,1.6688 0.3016,2.8602 0.902,3.5685 0.6035,0.7113 1.3855,1.0653 2.3493,1.0653 0.7112,0 1.3238,-0.2248 1.8349,-0.6775 0.5111,-0.4524 0.8807,-1.1608 1.1024,-2.1305 z m 23.2489,4.877 h -2.8851 l -1.1424,-3.0112 h -5.3047 l -1.0993,3.0112 h -2.8327 l 5.1358,-13.227 h 2.8296 z m -4.8957,-5.2466 -1.838,-4.8955 -1.7858,4.8955 z m 16.9066,1.718 v -2.5307 h 4.9879 v 2.5307 z m 18.0516,3.5286 v -13.227 h 4.2829 c 1.6226,0 2.6787,0.0646 3.1714,0.197 0.7574,0.2001 1.3918,0.631 1.9029,1.2963 0.5111,0.665 0.7665,1.5239 0.7665,2.577 0,0.8126 -0.1477,1.4932 -0.4402,2.0474 -0.2957,0.5542 -0.6682,0.9885 -1.1208,1.3054 -0.4525,0.3141 -0.9145,0.5235 -1.3825,0.625 -0.6372,0.1264 -1.5579,0.1911 -2.7649,0.1911 h -1.7365 v 4.9878 z m 2.6788,-10.9919 v 3.7687 h 1.4564 c 1.05,0 1.7487,-0.0709 2.103,-0.2092 0.3541,-0.1386 0.631,-0.3544 0.8312,-0.6529 0.2001,-0.2956 0.3019,-0.6375 0.3019,-1.0315 0,-0.4833 -0.1418,-0.8804 -0.4218,-1.1945 -0.2835,-0.3141 -0.6376,-0.5111 -1.0715,-0.5913 -0.3172,-0.0584 -0.9545,-0.0893 -1.9151,-0.0893 z m 16.0965,10.9919 v -13.227 h 9.7912 v 2.2351 h -7.1124 v 2.9373 h 6.6135 v 2.2354 h -6.6135 v 3.5838 h 7.3712 v 2.2354 z m 18.7753,0 v -13.227 h 5.6253 c 1.4134,0 2.4415,0.1199 3.0822,0.3572 0.6434,0.2369 1.1545,0.6587 1.5395,1.2653 0.3846,0.6095 0.5788,1.3023 0.5788,2.0844 0,0.9946 -0.2894,1.8136 -0.8714,2.4601 -0.5819,0.6466 -1.4502,1.0531 -2.6079,1.2223 0.5758,0.3357 1.05,0.705 1.4225,1.1084 0.3756,0.4034 0.8804,1.1208 1.5148,2.1492 l 1.6135,2.5801 h -3.193 l -1.915,-2.8879 c -0.6866,-1.0253 -1.1577,-1.6719 -1.4134,-1.9398 -0.2523,-0.2647 -0.5202,-0.4496 -0.8036,-0.5482 -0.2863,-0.0984 -0.7359,-0.1477 -1.3516,-0.1477 h -0.542 v 5.5236 z m 2.6787,-7.6297 h 1.9769 c 1.2807,0 2.0781,-0.0553 2.3984,-0.163 0.3172,-0.1077 0.5695,-0.2957 0.7481,-0.5604 0.1817,-0.2648 0.271,-0.5973 0.271,-0.9947 0,-0.4462 -0.1199,-0.8033 -0.3572,-1.0806 -0.237,-0.2741 -0.5726,-0.4464 -1.0038,-0.5173 -0.2185,-0.0306 -0.8682,-0.0462 -1.9488,-0.0462 h -2.0846 z m 17.1156,-5.5973 h 2.6788 v 7.1677 c 0,1.1392 0.034,1.8751 0.099,2.2107 0.114,0.5417 0.3818,0.9791 0.8067,1.3054 0.4278,0.3294 1.0097,0.4926 1.7487,0.4926 0.7484,0 1.3147,-0.1539 1.6966,-0.4649 0.3818,-0.3109 0.6097,-0.6896 0.6865,-1.1423 0.077,-0.4527 0.1171,-1.2008 0.1171,-2.2476 v -7.3216 h 2.6787 v 6.9551 c 0,1.5888 -0.071,2.7127 -0.2157,3.3684 -0.1445,0.6559 -0.4093,1.2101 -0.7974,1.6628 -0.3846,0.4524 -0.9019,0.8096 -1.5485,1.0774 -0.6497,0.2679 -1.4933,0.4034 -2.537,0.4034 -1.2595,0 -2.2139,-0.1446 -2.8636,-0.4371 -0.6497,-0.2925 -1.1639,-0.6712 -1.5426,-1.1392 -0.3787,-0.468 -0.6251,-0.9545 -0.745,-1.4687 -0.1754,-0.7574 -0.2619,-1.8782 -0.2619,-3.359 z m 3.7503,-1.2011 1.2563,-2.6971 h 2.8264 l -2.4939,2.6971 z"
         style="fill:#0097d3;fill-rule:evenodd"
         id="path27" />
      <path
         d="m -1600.8059,-198.6585 v 24.8945 h -46.1558 v 15.8886 h 42.2668 v 22.4893 h -42.2668 v 16.5022 h 46.1558 v 25.1757 h -74.9388 v -104.9503 z"
         style="fill:#0097d3;fill-rule:evenodd"
         id="path29" />
    </g>
    <g
       id="Layer1004"
       transform="matrix(0.26458333,0,0,0.26458333,491.03536,186.44311)"
       style="fill:#f7d117;fill-opacity:1">
      <path
         d="m -1699.3939,-84.6886 v 13.8657 h 98.4531 v -13.8657 z"
         style="fill:#f7d117;fill-rule:evenodd;fill-opacity:1"
         id="path77" />
      <path
         d="m -1699.3939,-222.7769 v 13.8658 h 98.4531 v -13.8658 z"
         style="fill:#f7d117;fill-rule:evenodd;fill-opacity:1"
         id="path79" />
      <path
         d="m -1667.2067,-159.8363 v -11.7664 h -32.1872 v 11.7664 z"
         style="fill:#f7d117;fill-rule:evenodd;fill-opacity:1"
         id="path81" />
      <path
         d="m -1667.2067,-178.7223 v -11.7664 h -32.1872 v 11.7664 z"
         style="fill:#f7d117;fill-rule:evenodd;fill-opacity:1"
         id="path83" />
      <path
         d="m -1667.2067,-140.9505 v -11.7664 h -32.1872 v 11.7664 z"
         style="fill:#f7d117;fill-rule:evenodd;fill-opacity:1"
         id="path85" />
      <path
         d="m -1667.2067,-121.4584 v -11.7665 h -32.1872 v 11.7665 z"
         style="fill:#f7d117;fill-rule:evenodd;fill-opacity:1"
         id="path87" />
      <path
         d="m -1667.2067,-102.573 v -11.7665 h -32.1872 v 11.7665 z"
         style="fill:#f7d117;fill-rule:evenodd;fill-opacity:1"
         id="path89" />
    </g>
  </g>
</svg>
