<?xml version="1.0" encoding="UTF-8" standalone="no"?>
<!-- Created with Inkscape (http://www.inkscape.org/) -->

<svg
   width="210mm"
   height="297mm"
   viewBox="0 0 210 297"
   version="1.1"
   id="svg5"
   inkscape:version="1.1.1 (3bf5ae0d25, 2021-09-20)"
   sodipodi:docname="white_logo.svg"
   xmlns:inkscape="http://www.inkscape.org/namespaces/inkscape"
   xmlns:sodipodi="http://sodipodi.sourceforge.net/DTD/sodipodi-0.dtd"
   xmlns="http://www.w3.org/2000/svg"
   xmlns:svg="http://www.w3.org/2000/svg">
  <sodipodi:namedview
     id="namedview7"
     pagecolor="#ffffff"
     bordercolor="#666666"
     borderopacity="1.0"
     inkscape:pageshadow="2"
     inkscape:pageopacity="0.0"
     inkscape:pagecheckerboard="0"
     inkscape:document-units="mm"
     showgrid="false"
     inkscape:zoom="0.69664703"
     inkscape:cx="-343.78959"
     inkscape:cy="561.25984"
     inkscape:window-width="1920"
     inkscape:window-height="974"
     inkscape:window-x="-11"
     inkscape:window-y="-11"
     inkscape:window-maximized="1"
     inkscape:current-layer="g1026" />
  <defs
     id="defs2" />
  <g
     inkscape:label="Capa 1"
     inkscape:groupmode="layer"
     id="layer1">
    <g
       id="g1026"
       transform="matrix(0.26458333,0,0,0.26458333,315.37829,134.43181)">
      <g
         id="Layer1003"
         transform="translate(663.90075,-330.64754)"
         inkscape:export-filename="D:\Desktop\bw.png"
         inkscape:export-xdpi="464.49826"
         inkscape:export-ydpi="464.49826">
        <path
           d="m -1541.0418,355.4949 c 4.8104,0 9.5949,0.9214 14.4047,2.7123 13.9697,7.0359 20.9796,18.549 20.9796,34.4889 v 0.8954 c 0,7.445 -1.6883,14.1483 -5.091,20.0841 -7.343,11.1807 -16.9373,16.784 -28.7836,16.784 h -3.9143 c -6.3455,0 -12.3833,-2.4052 -18.1399,-7.1897 v 33.133 h -29.9602 v -35.5376 l 0.051,-63.4003 h 30.0622 v 5.2449 h 0.3071 c 5.7566,-4.8098 12.4346,-7.215 20.0841,-7.215 z m 2.0981,28.1952 c -2.9077,-6.8134 -8.0883,-6.7664 -13.7905,-5.9871 -6.8053,0.9301 -9.5943,5.6799 -9.5943,13.4833 0.2948,10.8878 -0.1842,16.4917 11.6924,17.6795 h 1.7909 c 12.1967,0 13.3641,-16.2995 9.9015,-25.1757 z"
           style="fill:#ffffff;fill-rule:evenodd"
           id="path877" />
        <path
           d="m -1471.6284,357.465 v 76.4486 h -29.9602 V 357.465 Z m -29.9602,-7.4962 v -21.0055 h 29.9602 v 21.0055 z"
           style="fill:#ffffff;fill-rule:evenodd"
           id="path879" />
        <path
           d="m -1384.3582,433.9136 h -28.1946 v -39.887 c 0,-7.4456 -2.5845,-12.0255 -7.8034,-13.7905 -1.1,-0.1792 -1.9961,-0.2818 -2.6864,-0.2818 h -1.791 c -5.2961,0 -8.8014,3.0962 -10.4903,9.2878 -0.2046,0.7416 -0.3066,1.6371 -0.3066,2.6864 v 41.9851 h -28.4764 V 357.465 h 28.4764 v 9.5943 c 6.78,-8.2124 14.4808,-12.306 23.0777,-12.306 h 2.098 c 12.3574,0 20.6471,6.1916 24.894,18.6003 0.7935,3.7351 1.2026,7.1384 1.2026,10.1826 z"
           style="fill:#ffffff;fill-rule:evenodd"
           id="path881" />
        <path
           d="m -1344.4193,354.0111 h 3.5305 c 10.7716,0 21.7478,2.9935 32.9025,8.9806 0,0.5117 -3.2747,6.4988 -9.8242,18.012 l -10.2599,-2.8656 c -4.9124,-1.3819 -9.0313,-2.0981 -12.3833,-2.0981 h -1.8676 c -3.0448,0 -4.8611,1.3046 -5.3987,3.9143 0,1.6377 3.9916,3.3261 11.9995,5.0917 11.3859,3.0961 18.9334,6.3449 22.6432,9.7481 4.6306,4.0423 6.9592,9.4405 6.9592,16.1698 0,13.9437 -8.2131,22.6426 -24.664,26.0965 -3.6332,0.4097 -6.6014,0.5883 -8.8528,0.5883 h -2.226 c -14.1482,0 -27.1199,-3.8884 -38.9148,-11.6924 v -0.2811 c 7.0871,-11.1554 10.7969,-16.7581 11.104,-16.8094 h 0.2812 c 8.443,4.5027 16.9373,6.7546 25.4829,6.7546 h 1.8935 c 4.4514,0 6.652,-0.998 6.652,-2.9935 0,-2.789 -5.2708,-5.1942 -15.8119,-7.1897 -11.5898,-3.0955 -19.1373,-7.4449 -22.6425,-13.0483 -2.0981,-3.7098 -3.1469,-7.5988 -3.1469,-11.6924 0,-13.5346 8.2385,-22.2334 24.6641,-26.0971 3.1468,-0.3838 5.7819,-0.5883 7.88,-0.5883 z"
           style="fill:#ffffff;fill-rule:evenodd"
           id="path883" />
        <path
           d="m -1272.7812,397.0455 c 0,4.5286 0.5117,8.0845 1.5097,10.643 2.9077,6.8134 8.1235,6.9907 13.7905,5.9871 7.0772,-1.2533 9.7989,-6.9165 9.5943,-17.2444 -0.215,-10.8705 0.1805,-16.4917 -11.6924,-17.6789 h -1.7909 c -9.255,0 -11.4112,7.8448 -11.4112,15.888 z m 3.6078,38.8123 c -4.8098,0 -9.5943,-0.8955 -14.4047,-2.6864 -13.9951,-7.0612 -20.9796,-19.8029 -20.9796,-38.224 v -0.9208 c 0,-7.4456 1.6884,-14.1229 5.0916,-20.0847 7.343,-11.1807 16.9373,-16.7834 28.783,-16.7834 h 3.9149 c 6.345,0 12.3827,2.4046 18.1393,7.1891 v -6.8826 h 29.9602 l -0.077,76.4486 h -30.0368 v -5.2449 h -0.3072 c -5.7566,4.7845 -12.434,7.1891 -20.0841,7.1891 z"
           style="fill:#ffffff;fill-rule:evenodd"
           id="path885" />
        <path
           d="m -1537.3568,458.0898 v -2.2354 h 5.7456 v 5.2775 c -0.5573,0.5449 -1.3672,1.0222 -2.4293,1.4378 -1.0593,0.4124 -2.1339,0.6188 -3.2238,0.6188 -1.3825,0 -2.5864,-0.2894 -3.6148,-0.8714 -1.0253,-0.582 -1.798,-1.4162 -2.3153,-2.497 -0.5171,-1.0806 -0.7759,-2.2598 -0.7759,-3.5314 0,-1.3794 0.2894,-2.6048 0.8652,-3.6794 0.5788,-1.0715 1.4227,-1.8967 2.5341,-2.4693 0.8499,-0.4402 1.9027,-0.659 3.1652,-0.659 1.641,0 2.9248,0.345 3.8486,1.0346 0.9207,0.6928 1.5148,1.6441 1.7796,2.8633 l -2.6603,0.4989 c -0.1846,-0.6497 -0.5358,-1.1639 -1.0497,-1.5426 -0.5114,-0.3756 -1.1517,-0.5633 -1.9213,-0.5633 -1.1639,0 -2.0906,0.3694 -2.7774,1.1115 -0.6866,0.7418 -1.0312,1.8411 -1.0312,3.2975 0,1.5733 0.3478,2.7525 1.0437,3.5377 0.6987,0.7852 1.6103,1.1792 2.7402,1.1792 0.5573,0 1.1177,-0.1108 1.6781,-0.3294 0.5633,-0.2185 1.0438,-0.4864 1.4471,-0.8005 v -1.6781 z m 14.671,4.8586 v -13.227 h 5.6254 c 1.4133,0 2.4415,0.1199 3.0821,0.3571 0.6435,0.237 1.1546,0.6588 1.5395,1.2654 0.3847,0.6095 0.5788,1.3022 0.5788,2.0843 0,0.9947 -0.2894,1.8136 -0.8713,2.4602 -0.582,0.6466 -1.4502,1.0531 -2.6079,1.2223 0.5757,0.3356 1.0499,0.705 1.4224,1.1084 0.3756,0.4033 0.8805,1.1208 1.5148,2.1492 l 1.6135,2.5801 h -3.1929 l -1.9151,-2.888 c -0.6866,-1.0253 -1.1577,-1.6718 -1.4134,-1.9397 -0.2522,-0.2648 -0.5201,-0.4496 -0.8036,-0.5482 -0.2863,-0.0984 -0.7359,-0.1477 -1.3515,-0.1477 h -0.542 v 5.5236 z m 2.6788,-7.6298 h 1.9769 c 1.2807,0 2.078,-0.0552 2.3984,-0.1629 0.3171,-0.1078 0.5694,-0.2957 0.748,-0.5605 0.1817,-0.2647 0.271,-0.5972 0.271,-0.9946 0,-0.4462 -0.1199,-0.8034 -0.3572,-1.0806 -0.2369,-0.2741 -0.5726,-0.4465 -1.0037,-0.5173 -0.2186,-0.0306 -0.8683,-0.0462 -1.9488,-0.0462 h -2.0846 z m 17.1156,-5.5972 h 2.6787 v 7.1676 c 0,1.1393 0.034,1.8752 0.099,2.2108 0.1139,0.5417 0.3818,0.9791 0.8067,1.3053 0.4277,0.3294 1.0097,0.4927 1.7487,0.4927 0.7483,0 1.3147,-0.1539 1.6965,-0.4649 0.3818,-0.3109 0.6098,-0.6897 0.6866,-1.1423 0.077,-0.4527 0.117,-1.2008 0.117,-2.2476 v -7.3216 h 2.6788 v 6.955 c 0,1.5889 -0.071,2.7128 -0.2157,3.3685 -0.1446,0.6559 -0.4094,1.2101 -0.7974,1.6628 -0.3847,0.4524 -0.902,0.8095 -1.5486,1.0774 -0.6497,0.2679 -1.4933,0.4034 -2.537,0.4034 -1.2594,0 -2.2139,-0.1446 -2.8636,-0.4371 -0.6497,-0.2926 -1.1639,-0.6713 -1.5426,-1.1393 -0.3787,-0.468 -0.625,-0.9544 -0.7449,-1.4686 -0.1755,-0.7574 -0.2619,-1.8782 -0.2619,-3.3591 z m 19.7943,13.227 v -13.227 h 4.2829 c 1.6225,0 2.6787,0.0646 3.1714,0.197 0.7574,0.2001 1.3918,0.631 1.9029,1.2962 0.511,0.6651 0.7665,1.524 0.7665,2.577 0,0.8127 -0.1477,1.4933 -0.4403,2.0475 -0.2956,0.5542 -0.6681,0.9884 -1.1208,1.3053 -0.4524,0.3141 -0.9144,0.5236 -1.3824,0.6251 -0.6373,0.1264 -1.558,0.191 -2.765,0.191 h -1.7365 v 4.9879 z m 2.6787,-10.9919 v 3.7686 h 1.4565 c 1.0499,0 1.7487,-0.0708 2.103,-0.2092 0.354,-0.1386 0.631,-0.3543 0.8311,-0.6528 0.2001,-0.2956 0.3019,-0.6375 0.3019,-1.0315 0,-0.4833 -0.1417,-0.8805 -0.4218,-1.1945 -0.2834,-0.3141 -0.6375,-0.5111 -1.0715,-0.5913 -0.3172,-0.0584 -0.9544,-0.0893 -1.9151,-0.0893 z m 15.5424,4.4583 c 0,-1.3484 0.2032,-2.4814 0.6066,-3.399 0.2988,-0.6744 0.7112,-1.281 1.2317,-1.8167 0.5204,-0.5358 1.0899,-0.9329 1.7087,-1.1946 0.8252,-0.3481 1.7765,-0.5235 2.8542,-0.5235 1.9522,0 3.5101,0.6066 4.6831,1.8167 1.1699,1.2129 1.7549,2.8973 1.7549,5.0556 0,2.1399 -0.5819,3.8149 -1.7427,5.0218 -1.1608,1.2099 -2.7156,1.8134 -4.6585,1.8134 -1.9672,0 -3.5345,-0.6004 -4.6953,-1.8043 -1.1607,-1.2007 -1.7427,-2.8573 -1.7427,-4.9694 z m 2.7527,-0.0893 c 0,1.4995 0.3478,2.6357 1.0406,3.4115 0.6928,0.7727 1.5735,1.1608 2.6388,1.1608 1.0684,0 1.9429,-0.3849 2.6294,-1.1514 0.6834,-0.7699 1.0253,-1.9214 1.0253,-3.4577 0,-1.518 -0.3325,-2.651 -1.0006,-3.3962 -0.6653,-0.7481 -1.5489,-1.1206 -2.6541,-1.1206 -1.1024,0 -1.9922,0.3787 -2.6666,1.133 -0.674,0.7575 -1.0128,1.8967 -1.0128,3.4206 z m 37.3507,1.7459 2.5864,0.7942 c -0.3972,1.4565 -1.0593,2.537 -1.9829,3.2454 -0.9238,0.705 -2.0936,1.059 -3.5132,1.059 -1.7581,0 -3.202,-0.6003 -4.3351,-1.8011 -1.1298,-1.2007 -1.6965,-2.842 -1.6965,-4.9263 0,-2.2014 0.5695,-3.9132 1.7056,-5.1327 1.1364,-1.2192 2.6326,-1.8289 4.4861,-1.8289 1.6197,0 2.9345,0.4804 3.9442,1.438 0.6034,0.5664 1.053,1.3793 1.3546,2.4415 l -2.6416,0.6281 c -0.157,-0.6834 -0.4833,-1.2254 -0.9791,-1.6225 -0.4989,-0.3972 -1.1024,-0.5942 -1.8105,-0.5942 -0.9822,0 -1.7795,0.351 -2.3893,1.0559 -0.6125,0.7022 -0.9173,1.8414 -0.9173,3.4178 0,1.6687 0.3016,2.8601 0.902,3.5685 0.6035,0.7112 1.3856,1.0653 2.3494,1.0653 0.7112,0 1.3238,-0.2248 1.8348,-0.6775 0.5111,-0.4524 0.8808,-1.1608 1.1024,-2.1305 z m 10.7791,-1.6566 c 0,-1.3484 0.2032,-2.4814 0.6066,-3.399 0.2987,-0.6744 0.7112,-1.281 1.2316,-1.8167 0.5205,-0.5358 1.0899,-0.9329 1.7087,-1.1946 0.8252,-0.3481 1.7765,-0.5235 2.8543,-0.5235 1.9522,0 3.5101,0.6066 4.6831,1.8167 1.1698,1.2129 1.7549,2.8973 1.7549,5.0556 0,2.1399 -0.582,3.8149 -1.7427,5.0218 -1.1608,1.2099 -2.7156,1.8134 -4.6585,1.8134 -1.9672,0 -3.5345,-0.6004 -4.6953,-1.8043 -1.1608,-1.2007 -1.7427,-2.8573 -1.7427,-4.9694 z m 2.7527,-0.0893 c 0,1.4995 0.3478,2.6357 1.0406,3.4115 0.6928,0.7727 1.5735,1.1608 2.6388,1.1608 1.0683,0 1.9428,-0.3849 2.6294,-1.1514 0.6834,-0.7699 1.0253,-1.9214 1.0253,-3.4577 0,-1.518 -0.3325,-2.651 -1.0007,-3.3962 -0.6653,-0.7481 -1.5488,-1.1206 -2.654,-1.1206 -1.1024,0 -1.9922,0.3787 -2.6666,1.133 -0.6741,0.7575 -1.0128,1.8967 -1.0128,3.4206 z m 18.5873,6.6229 v -13.227 h 4.0119 l 2.3709,9.0212 2.3431,-9.0212 h 4.021 v 13.227 h -2.4755 l -0.01,-10.4131 -2.6079,10.4131 h -2.5741 l -2.5954,-10.4131 -0.01,10.4131 z m 21.8787,0 v -13.227 h 9.7911 v 2.2351 h -7.1124 v 2.9372 h 6.6135 v 2.2354 h -6.6135 v 3.5839 h 7.3712 v 2.2354 z m 27.2364,-4.877 2.5863,0.7942 c -0.3971,1.4565 -1.0593,2.537 -1.9828,3.2454 -0.9238,0.705 -2.0937,1.059 -3.5133,1.059 -1.758,0 -3.202,-0.6003 -4.335,-1.8011 -1.1299,-1.2007 -1.6965,-2.842 -1.6965,-4.9263 0,-2.2014 0.5694,-3.9132 1.7056,-5.1327 1.1364,-1.2192 2.6325,-1.8289 4.4861,-1.8289 1.6197,0 2.9344,0.4804 3.9441,1.438 0.6035,0.5664 1.0531,1.3793 1.3547,2.4415 l -2.6416,0.6281 c -0.1571,-0.6834 -0.4833,-1.2254 -0.9791,-1.6225 -0.4989,-0.3972 -1.1024,-0.5942 -1.8105,-0.5942 -0.9822,0 -1.7796,0.351 -2.3893,1.0559 -0.6126,0.7022 -0.9173,1.8414 -0.9173,3.4178 0,1.6687 0.3016,2.8601 0.902,3.5685 0.6035,0.7112 1.3855,1.0653 2.3493,1.0653 0.7112,0 1.3238,-0.2248 1.8349,-0.6775 0.5111,-0.4524 0.8807,-1.1608 1.1024,-2.1305 z m 23.2489,4.877 h -2.8851 l -1.1424,-3.0113 h -5.3047 l -1.0993,3.0113 h -2.8327 l 5.1358,-13.227 h 2.8296 z m -4.8957,-5.2467 -1.838,-4.8954 -1.7858,4.8954 z m 16.9066,1.7181 v -2.5308 h 4.9879 v 2.5308 z m 18.0516,3.5286 v -13.227 h 4.2829 c 1.6226,0 2.6787,0.0646 3.1714,0.197 0.7574,0.2001 1.3918,0.631 1.9029,1.2962 0.5111,0.6651 0.7665,1.524 0.7665,2.577 0,0.8127 -0.1477,1.4933 -0.4402,2.0475 -0.2957,0.5542 -0.6682,0.9884 -1.1208,1.3053 -0.4525,0.3141 -0.9145,0.5236 -1.3825,0.6251 -0.6372,0.1264 -1.5579,0.191 -2.7649,0.191 h -1.7365 v 4.9879 z m 2.6788,-10.9919 v 3.7686 h 1.4564 c 1.05,0 1.7487,-0.0708 2.103,-0.2092 0.3541,-0.1386 0.631,-0.3543 0.8312,-0.6528 0.2001,-0.2956 0.3019,-0.6375 0.3019,-1.0315 0,-0.4833 -0.1418,-0.8805 -0.4218,-1.1945 -0.2835,-0.3141 -0.6376,-0.5111 -1.0715,-0.5913 -0.3172,-0.0584 -0.9545,-0.0893 -1.9151,-0.0893 z m 16.0965,10.9919 v -13.227 h 9.7912 v 2.2351 h -7.1124 v 2.9372 h 6.6135 v 2.2354 h -6.6135 v 3.5839 h 7.3712 v 2.2354 z m 18.7753,0 v -13.227 h 5.6253 c 1.4134,0 2.4415,0.1199 3.0822,0.3571 0.6434,0.237 1.1545,0.6588 1.5395,1.2654 0.3846,0.6095 0.5788,1.3022 0.5788,2.0843 0,0.9947 -0.2894,1.8136 -0.8714,2.4602 -0.5819,0.6466 -1.4502,1.0531 -2.6079,1.2223 0.5758,0.3356 1.05,0.705 1.4225,1.1084 0.3756,0.4033 0.8804,1.1208 1.5148,2.1492 l 1.6135,2.5801 h -3.193 l -1.915,-2.888 c -0.6866,-1.0253 -1.1577,-1.6718 -1.4134,-1.9397 -0.2523,-0.2648 -0.5202,-0.4496 -0.8036,-0.5482 -0.2863,-0.0984 -0.7359,-0.1477 -1.3516,-0.1477 h -0.542 v 5.5236 z m 2.6787,-7.6298 h 1.9769 c 1.2807,0 2.0781,-0.0552 2.3984,-0.1629 0.3172,-0.1078 0.5695,-0.2957 0.7481,-0.5605 0.1817,-0.2647 0.271,-0.5972 0.271,-0.9946 0,-0.4462 -0.1199,-0.8034 -0.3572,-1.0806 -0.237,-0.2741 -0.5726,-0.4465 -1.0038,-0.5173 -0.2185,-0.0306 -0.8682,-0.0462 -1.9488,-0.0462 h -2.0846 z m 17.1156,-5.5972 h 2.6788 v 7.1676 c 0,1.1393 0.034,1.8752 0.099,2.2108 0.114,0.5417 0.3818,0.9791 0.8067,1.3053 0.4278,0.3294 1.0097,0.4927 1.7487,0.4927 0.7484,0 1.3147,-0.1539 1.6966,-0.4649 0.3818,-0.3109 0.6097,-0.6897 0.6865,-1.1423 0.077,-0.4527 0.1171,-1.2008 0.1171,-2.2476 v -7.3216 h 2.6787 v 6.955 c 0,1.5889 -0.071,2.7128 -0.2157,3.3685 -0.1445,0.6559 -0.4093,1.2101 -0.7974,1.6628 -0.3846,0.4524 -0.9019,0.8095 -1.5485,1.0774 -0.6497,0.2679 -1.4933,0.4034 -2.537,0.4034 -1.2595,0 -2.2139,-0.1446 -2.8636,-0.4371 -0.6497,-0.2926 -1.1639,-0.6713 -1.5426,-1.1393 -0.3787,-0.468 -0.6251,-0.9544 -0.745,-1.4686 -0.1754,-0.7574 -0.2619,-1.8782 -0.2619,-3.3591 z m 3.7503,-1.2011 1.2563,-2.6972 h 2.8264 l -2.4939,2.6972 z"
           style="fill:#ffffff;fill-rule:evenodd"
           id="path887" />
        <path
           d="m -1600.8059,328.5672 v 24.8945 h -46.1558 v 15.8885 h 42.2668 v 22.4893 h -42.2668 v 16.5022 h 46.1558 v 25.1758 h -74.9388 V 328.5672 Z"
           style="fill:#ffffff;fill-rule:evenodd"
           id="path889" />
      </g>
      <g
         id="Layer1007"
         transform="translate(663.90075,-330.64754)"
         style="fill:#f7d117;fill-opacity:1"
         inkscape:export-filename="D:\Desktop\bw.png"
         inkscape:export-xdpi="464.49826"
         inkscape:export-ydpi="464.49826">
        <path
           d="m -1699.3939,442.537 v 13.8658 h 98.4531 V 442.537 Z"
           style="fill:#f7d117;fill-rule:evenodd;fill-opacity:1"
           id="path937" />
        <path
           d="m -1699.3939,304.4488 v 13.8658 h 98.4531 v -13.8658 z"
           style="fill:#f7d117;fill-rule:evenodd;fill-opacity:1"
           id="path939" />
        <path
           d="m -1667.2067,367.3894 v -11.7665 h -32.1872 v 11.7665 z"
           style="fill:#f7d117;fill-rule:evenodd;fill-opacity:1"
           id="path941" />
        <path
           d="M -1667.2067,348.5034 V 336.737 h -32.1872 v 11.7664 z"
           style="fill:#f7d117;fill-rule:evenodd;fill-opacity:1"
           id="path943" />
        <path
           d="m -1667.2067,386.2752 v -11.7665 h -32.1872 v 11.7665 z"
           style="fill:#f7d117;fill-rule:evenodd;fill-opacity:1"
           id="path945" />
        <path
           d="m -1667.2067,405.7672 v -11.7664 h -32.1872 v 11.7664 z"
           style="fill:#f7d117;fill-rule:evenodd;fill-opacity:1"
           id="path947" />
        <path
           d="m -1667.2067,424.6526 v -11.7664 h -32.1872 v 11.7664 z"
           style="fill:#f7d117;fill-rule:evenodd;fill-opacity:1"
           id="path949" />
      </g>
    </g>
  </g>
</svg>
